<svg version="1.0" xmlns="http://www.w3.org/2000/svg"
 width="300.000000pt" height="300.000000pt" viewBox="0 0 300.000000 300.000000"
 preserveAspectRatio="xMidYMid meet">
<g transform="translate(0.000000,300.000000) scale(0.100000,-0.100000)"
fill="#000000" stroke="none">
<path d="M808 2450 c-19 -16 -38 -40 -42 -53 -5 -20 -14 -25 -56 -30 -28 -3
-64 -15 -80 -27 -30 -21 -60 -71 -60 -99 0 -9 -20 -25 -47 -38 -82 -39 -97
-77 -81 -208 2 -24 -2 -32 -24 -43 -15 -7 -41 -29 -58 -50 -37 -45 -38 -89 -3
-144 l23 -38 -35 -53 c-32 -48 -35 -58 -29 -97 5 -29 19 -56 42 -82 l35 -39
-16 -35 c-10 -19 -17 -49 -17 -65 0 -41 34 -100 71 -124 25 -18 29 -26 29 -68
0 -27 7 -64 16 -83 16 -33 69 -87 95 -96 8 -3 13 -25 15 -61 2 -58 32 -117 59
-117 7 0 43 -27 79 -60 78 -71 94 -73 178 -28 61 32 108 81 108 112 0 20 -34
72 -81 124 -46 50 -109 128 -109 134 0 3 -18 33 -40 65 -90 136 -140 292 -147
463 -5 116 -4 130 21 205 34 100 79 169 150 231 87 74 150 97 271 98 90 1 106
-2 165 -29 36 -16 94 -50 130 -76 130 -93 145 -94 245 -23 128 92 237 136 330
135 78 -1 92 -4 158 -35 107 -51 189 -147 238 -276 21 -58 24 -81 24 -215 0
-174 -9 -215 -85 -371 -67 -141 -110 -204 -200 -298 -90 -95 -105 -118 -91
-145 27 -50 161 -128 202 -118 13 3 44 25 69 47 25 23 57 48 71 55 50 27 79
72 79 125 0 44 3 50 45 85 60 49 89 105 82 162 -2 24 -1 43 3 43 16 0 90 80
96 105 9 35 -2 94 -20 114 -13 15 -11 21 24 61 55 63 58 121 9 183 -28 35 -29
40 -19 72 6 19 16 37 21 40 34 22 -16 133 -74 164 -31 17 -32 18 -12 64 25 60
-8 130 -81 173 -24 14 -44 33 -44 42 0 28 -38 81 -72 102 -19 12 -51 20 -75
20 -40 0 -43 2 -62 45 -36 82 -117 108 -191 59 -34 -23 -43 -25 -72 -15 -55
18 -123 4 -227 -49 -111 -57 -135 -72 -190 -123 -22 -20 -43 -37 -46 -37 -3 0
-38 26 -78 59 -128 104 -321 190 -362 161 -29 -21 -65 -19 -101 5 -53 36 -108
34 -156 -5z m128 -21 c12 -4 30 -20 41 -35 l20 -28 28 22 c41 33 88 38 132 15
107 -56 172 -91 208 -115 41 -26 125 -107 125 -120 0 -5 7 -8 15 -8 8 0 15 6
15 12 0 27 112 116 202 162 51 26 99 53 107 59 23 19 134 15 155 -5 24 -25 32
-23 52 11 20 34 50 44 100 35 42 -8 64 -37 64 -85 0 -37 22 -69 35 -49 3 5 30
10 60 10 47 0 56 -3 79 -31 30 -35 33 -65 10 -97 -20 -29 -27 -28 -65 9 -38
37 -116 88 -182 119 -40 19 -66 23 -165 24 -70 0 -129 -4 -143 -10 -120 -56
-152 -73 -204 -110 -57 -39 -105 -84 -92 -84 4 0 21 13 39 29 40 35 150 94
238 129 55 21 80 25 161 24 107 -2 152 -14 243 -69 82 -49 204 -175 228 -235
4 -10 12 -18 18 -18 19 0 0 42 -46 100 -47 60 -45 70 18 70 67 0 128 -87 93
-134 -8 -11 -22 -30 -30 -42 -16 -22 -10 -58 9 -51 21 8 91 -40 107 -74 16
-32 16 -36 -2 -70 -10 -20 -25 -39 -34 -42 -24 -10 -19 -56 8 -66 36 -14 67
-58 67 -95 0 -37 -45 -96 -73 -96 -31 0 -31 -40 -1 -71 22 -23 29 -39 29 -71
0 -35 -6 -45 -40 -74 -22 -19 -50 -34 -62 -34 -32 0 -36 -15 -13 -56 18 -30
19 -41 10 -63 -22 -53 -100 -121 -138 -121 -27 0 -28 -14 -3 -46 15 -19 17
-31 10 -61 -9 -43 -31 -63 -70 -63 -19 0 -30 -6 -34 -20 -7 -22 -72 -90 -86
-90 -12 0 -48 21 -71 41 -10 9 -36 25 -58 35 -22 10 -40 23 -40 27 0 5 36 45
81 90 104 105 115 120 189 251 102 184 134 303 127 481 -4 116 -10 158 -27
200 -4 11 -16 40 -26 65 -17 43 -60 105 -114 162 -34 36 -138 98 -166 98 -13
0 -26 5 -29 10 -3 6 -43 10 -87 10 -132 0 -250 -50 -394 -165 -18 -14 -42 -25
-54 -25 -18 0 -112 58 -130 80 -16 20 -141 83 -173 88 -21 2 -40 9 -43 13 -7
12 -181 11 -189 -1 -3 -5 -16 -10 -27 -10 -68 0 -204 -104 -266 -204 -69 -111
-84 -158 -89 -291 -6 -128 6 -206 49 -330 49 -142 159 -322 266 -437 79 -84
80 -86 44 -119 -17 -16 -34 -29 -37 -29 -4 0 -19 -8 -33 -19 -57 -39 -68 -37
-130 26 -34 35 -71 62 -92 68 -31 9 -35 14 -38 49 -2 21 1 43 7 49 20 20 13
57 -14 67 -14 5 -45 28 -70 51 -42 38 -45 45 -45 90 0 27 5 49 10 49 21 0 9
31 -15 40 -14 5 -41 26 -60 46 -29 30 -35 43 -35 79 0 35 5 48 25 63 25 20 34
52 14 52 -25 0 -81 70 -86 109 -6 41 2 53 65 103 19 15 20 21 10 43 -6 14 -14
25 -18 25 -9 0 -50 75 -50 92 0 25 92 98 122 98 7 0 19 9 25 19 10 16 8 22 -8
37 -10 9 -24 34 -31 55 -10 35 -9 42 13 74 13 19 33 38 44 42 24 8 66 4 81 -8
17 -14 23 0 13 34 -15 54 -11 78 22 108 35 33 99 40 125 14 9 -8 20 -15 25
-15 16 0 22 29 10 44 -9 11 -8 22 5 48 24 52 63 63 130 37z"/>
<path d="M908 2321 c-24 -8 -60 -25 -80 -38 -21 -12 -41 -23 -46 -23 -4 0 -17
-8 -28 -18 -10 -10 -37 -31 -58 -47 -53 -40 -156 -172 -155 -199 0 -20 1 -20
12 -2 34 52 108 144 138 171 62 54 172 125 195 125 13 0 26 5 29 10 10 17 210
12 273 -6 80 -24 177 -80 245 -143 49 -46 81 -64 52 -31 -69 81 -171 153 -264
186 -83 29 -246 37 -313 15z"/>
<path d="M490 1911 c-5 -11 -10 -29 -10 -40 0 -10 -7 -47 -16 -80 -25 -98 -10
-353 25 -436 5 -11 21 -51 37 -90 15 -38 30 -72 33 -75 3 -3 19 -32 36 -65 42
-86 106 -184 160 -246 25 -30 59 -69 75 -87 16 -19 34 -31 40 -27 11 7 -20 47
-114 150 -25 28 -45 56 -46 63 0 6 -4 12 -10 12 -5 0 -10 5 -10 10 0 6 -15 34
-33 63 -18 29 -40 66 -48 82 -9 17 -20 39 -27 50 -6 11 -18 38 -28 60 -9 22
-20 49 -24 60 -5 11 -21 56 -35 101 -24 74 -26 92 -22 210 3 110 17 206 42
285 8 25 -11 24 -25 0z"/>
<path d="M2494 1873 c24 -99 30 -152 29 -265 -1 -71 2 -128 6 -128 17 0 22
111 11 236 -11 124 -25 184 -44 184 -4 0 -5 -12 -2 -27z"/>
<path d="M2507 1439 c-13 -83 -35 -137 -122 -294 -53 -97 -161 -252 -212 -304
-24 -24 -43 -47 -43 -52 0 -16 35 -10 50 9 8 10 36 43 62 73 26 31 55 76 64
100 10 24 24 50 31 57 36 37 103 155 103 181 0 6 3 11 8 11 9 0 42 74 42 94 0
8 5 18 10 21 6 3 10 17 10 30 0 13 5 27 10 30 12 8 13 45 1 64 -6 9 -10 3 -14
-20z"/>
<path d="M1112 2005 c-29 -8 -66 -23 -83 -32 -18 -10 -42 -24 -54 -30 -31 -18
-103 -99 -125 -143 -73 -143 -61 -318 33 -477 85 -145 249 -296 490 -452 86
-56 102 -63 135 -59 62 9 354 220 493 358 212 209 264 438 148 645 -38 67 -91
117 -166 155 -141 70 -293 61 -435 -27 -38 -24 -64 -29 -70 -15 -5 12 -78 53
-123 69 -59 21 -180 25 -243 8z m225 -43 c10 -5 36 -17 58 -28 22 -10 55 -33
73 -51 39 -39 44 -40 57 -11 9 19 51 44 149 89 34 16 208 18 228 2 7 -6 26
-13 42 -17 117 -28 226 -199 226 -354 0 -83 -39 -222 -62 -222 -5 0 -8 -5 -8
-10 0 -21 -79 -116 -157 -190 -91 -86 -172 -151 -258 -206 -33 -21 -65 -43
-71 -48 -7 -6 -24 -20 -40 -31 -15 -11 -33 -26 -40 -33 -14 -13 -64 -17 -64
-4 0 4 -22 21 -50 37 -27 17 -50 33 -50 38 0 4 -4 7 -10 7 -9 0 -109 68 -172
117 -30 24 -207 201 -233 233 -33 42 -95 170 -95 195 0 13 -4 27 -10 30 -18
11 -11 155 10 219 42 126 163 232 285 250 42 6 171 -2 192 -12z"/>
<path d="M1175 1858 c-33 -4 -61 -12 -63 -18 -2 -5 -11 -10 -20 -10 -9 0 -31
-13 -48 -28 -27 -24 -43 -48 -75 -114 -12 -23 -11 -173 0 -196 5 -9 22 -44 37
-77 38 -80 216 -258 339 -340 49 -33 96 -66 103 -73 32 -30 52 -33 82 -15 17
9 30 21 30 25 0 4 5 8 11 8 5 0 44 26 86 58 42 31 88 66 102 76 30 22 198 191
221 221 8 11 27 46 43 77 23 48 27 69 27 142 0 74 -4 92 -27 133 -52 94 -112
128 -228 128 -107 0 -184 -35 -265 -118 l-27 -29 -44 44 c-46 45 -128 91 -189
106 -19 4 -62 4 -95 0z m171 -72 c27 -15 67 -42 89 -61 52 -45 81 -45 137 1
94 79 229 114 308 81 86 -37 135 -116 135 -217 0 -120 -80 -240 -257 -382
-176 -142 -288 -207 -288 -168 0 6 -4 10 -10 10 -5 0 -49 27 -97 60 -86 59
-221 181 -277 250 -76 94 -105 227 -72 328 19 55 43 82 102 112 57 30 162 23
230 -14z"/>
<path d="M1255 1466 c-43 -19 -85 -71 -85 -107 0 -31 30 -67 115 -134 28 -22
71 -59 97 -83 25 -24 65 -57 87 -74 48 -35 44 -36 131 51 30 31 84 81 120 111
128 109 141 133 98 190 -38 52 -115 63 -156 22 -109 -105 -155 -141 -170 -133
-10 5 -44 36 -77 68 -53 52 -117 104 -127 103 -1 -1 -17 -7 -33 -14z m144
-128 l100 -102 48 46 c140 133 168 158 178 158 18 0 85 -50 85 -64 0 -18 -21
-39 -130 -131 -100 -84 -123 -106 -147 -142 -20 -29 -31 -29 -55 2 -11 14 -72
69 -137 122 -141 118 -141 118 -141 136 0 18 65 77 85 77 7 0 58 -46 114 -102z"/>
</g>
</svg>
